# xmcd
#
# Track frame offsets:
#	150
#	20327
#	38299
#	55355
#	70325
#	89375
#	105005
#	120774
#	138362
#	156035
#	166336
#	188758
#
# Disc length: 2729 seconds
#
# Revision: 0
# Processed by: cddbd v1.5.2PL0 Copyright (c) Steve Scherf et al.
# Submitted via: EasyCDDAExtractor 10.0.1.1
#
DISCID=850aa70c
DTITLE=Vanessa Da Mata - Sim
DYEAR=1900
DGENRE=
TTITLE0=Bau
TTITLE1=Boa sorte, Good Luck
TTITLE2=Vermelho
TTITLE3=Fugiu com a novela
TTITLE4=Amado
TTITLE5=Pirraca
TTITLE6=Absurdo
TTITLE7=Quem ira nos proteger
TTITLE8=Ilegais
TTITLE9=Quando um homen tem uma mangueira no quintal
TTITLE10=Meu deus
TTITLE11=Minca heranca: uma flor
EXTD=
EXTT0=
EXTT1=
EXTT2=
EXTT3=
EXTT4=
EXTT5=
EXTT6=
EXTT7=
EXTT8=
EXTT9=
EXTT10=
EXTT11=
PLAYORDER=
